<?xml version="1.0" standalone="no"?>
<!DOCTYPE svg PUBLIC "-//W3C//DTD SVG 20010904//EN"
 "http://www.w3.org/TR/2001/REC-SVG-20010904/DTD/svg10.dtd">
<svg version="1.0" xmlns="http://www.w3.org/2000/svg"
 width="219.000000pt" height="230.000000pt" viewBox="0 0 219.000000 230.000000"
 preserveAspectRatio="xMidYMid meet">

<g transform="translate(0.000000,230.000000) scale(0.100000,-0.100000)"
fill="black" stroke="none">
<path d="M679 2170 c-267 -66 -490 -271 -580 -533 -57 -166 -59 -336 -7 -505
77 -252 288 -463 540 -540 215 -67 439 -42 633 69 l69 40 286 -285 c157 -156
295 -289 307 -295 12 -6 42 -11 66 -11 60 0 106 32 131 92 36 88 32 95 -294
423 l-288 290 29 45 c77 121 125 311 116 460 -23 359 -273 661 -621 750 -104
26 -279 26 -387 0z m352 -300 c215 -73 359 -271 359 -495 0 -143 -53 -267
-156 -372 -159 -158 -387 -195 -594 -96 -73 35 -198 160 -233 233 -102 212
-66 431 98 596 146 149 338 197 526 134z"/>
</g>
</svg>
