<?xml version="1.0" standalone="no"?>
<!DOCTYPE svg PUBLIC "-//W3C//DTD SVG 20010904//EN"
 "http://www.w3.org/TR/2001/REC-SVG-20010904/DTD/svg10.dtd">
<svg version="1.0" xmlns="http://www.w3.org/2000/svg"
 width="512.000000pt" height="512.000000pt" viewBox="0 0 512.000000 512.000000"
 preserveAspectRatio="xMidYMid meet">

<g transform="translate(0.000000,512.000000) scale(0.100000,-0.100000)"
fill="#f7faf8" stroke="none">
<path d="M2468 4838 c-72 -31 -2404 -2068 -2438 -2129 -37 -65 -36 -166 3
-231 15 -26 43 -59 62 -74 65 -49 103 -54 427 -54 l298 0 0 -942 c0 -592 4
-956 10 -979 14 -51 76 -118 134 -145 l51 -24 551 0 c615 0 610 -1 682 69 79
77 77 57 80 594 l3 477 229 0 229 0 3 -477 3 -478 29 -53 c16 -28 44 -64 63
-78 72 -55 72 -55 679 -52 552 3 559 3 600 25 54 29 110 93 123 140 7 25 11
347 11 981 l0 942 298 0 c324 0 362 5 427 54 19 15 47 48 62 74 39 65 40 166
3 231 -18 32 -152 155 -487 448 l-463 404 0 470 c0 518 1 511 -63 577 -18 19
-50 43 -72 55 -38 21 -53 22 -382 25 -222 2 -356 -1 -382 -8 -60 -16 -122 -68
-152 -128 l-26 -52 -179 156 c-106 93 -199 167 -229 180 -62 29 -125 30 -187
2z"/>
</g>
</svg>
